<?xml version="1.0" standalone="no"?>
<!DOCTYPE svg PUBLIC "-//W3C//DTD SVG 20010904//EN"
 "http://www.w3.org/TR/2001/REC-SVG-20010904/DTD/svg10.dtd">
<svg version="1.0" xmlns="http://www.w3.org/2000/svg"
 width="300.000000pt" height="300.000000pt" viewBox="0 0 300.000000 300.000000"
 preserveAspectRatio="xMidYMid meet">
<metadata>
Created by potrace 1.14, written by Peter Selinger 2001-2017
</metadata>
<g transform="translate(0.000000,300.000000) scale(0.100000,-0.100000)"
fill="#000000" stroke="none">
<path d="M1334 2888 c-3 -4 -25 -6 -49 -5 -25 1 -45 -1 -45 -5 0 -4 -13 -8
-28 -8 -16 0 -50 -6 -75 -14 -26 -8 -47 -12 -47 -9 0 3 -7 0 -15 -7 -8 -7 -15
-9 -15 -5 0 4 -6 2 -13 -4 -8 -6 -17 -8 -21 -4 -4 4 -10 3 -14 -3 -4 -5 -33
-18 -64 -29 -32 -11 -58 -23 -58 -27 0 -4 -3 -7 -7 -6 -8 2 -119 -50 -138 -65
-5 -4 -35 -24 -66 -45 -31 -20 -73 -50 -93 -67 -59 -47 -176 -164 -176 -174 0
-5 -11 -18 -25 -29 -14 -11 -25 -23 -25 -27 0 -4 -13 -24 -30 -45 -16 -20 -27
-40 -23 -44 3 -3 1 -6 -6 -6 -6 0 -16 -11 -21 -25 -5 -14 -15 -25 -21 -25 -7
0 -9 -3 -6 -7 4 -3 -1 -15 -10 -26 -10 -10 -18 -22 -17 -26 0 -5 -20 -54 -71
-166 -7 -16 -16 -47 -20 -68 -4 -20 -11 -40 -16 -43 -5 -3 -7 -10 -4 -15 4 -5
3 -15 -2 -21 -4 -7 -8 -21 -9 -30 -1 -10 -3 -19 -4 -20 -1 -2 -4 -16 -6 -33
-3 -16 -8 -50 -11 -75 -10 -66 -9 -345 1 -415 4 -33 8 -68 8 -78 -1 -9 4 -17
9 -17 5 0 7 -13 4 -30 -3 -16 -1 -30 4 -30 5 0 14 -22 20 -48 5 -26 15 -61 21
-77 6 -17 11 -32 12 -35 0 -3 4 -10 10 -17 5 -7 7 -17 3 -23 -3 -5 -2 -10 3
-10 5 0 21 -26 35 -57 28 -62 66 -130 82 -150 6 -7 16 -19 23 -28 7 -8 11 -19
8 -24 -3 -4 6 -14 19 -21 14 -7 25 -19 25 -26 0 -7 10 -24 22 -37 13 -13 30
-32 39 -43 32 -39 148 -142 153 -137 3 4 6 1 6 -5 0 -7 19 -24 43 -39 23 -16
50 -35 59 -43 9 -8 56 -35 105 -60 48 -25 91 -49 95 -55 4 -5 8 -6 8 -1 0 5 7
3 15 -4 8 -7 15 -9 15 -5 0 4 7 2 15 -5 8 -7 15 -9 15 -4 0 5 4 4 8 -1 6 -9
57 -29 105 -41 4 -1 10 -3 15 -4 4 -2 12 -4 17 -5 6 -2 12 -4 15 -5 18 -7 51
-12 180 -30 141 -20 387 -8 520 24 65 16 190 58 195 66 3 5 12 7 20 3 8 -3 15
0 15 6 0 6 3 10 8 9 7 -2 122 52 132 62 3 3 21 14 40 24 19 11 51 32 71 48 20
15 40 28 44 28 4 0 20 11 34 25 14 14 59 56 99 94 39 38 72 72 72 75 0 4 10
18 23 32 43 48 52 60 97 129 49 75 106 185 102 198 -1 4 2 7 8 7 5 0 10 6 10
14 0 7 8 31 17 52 9 22 16 45 14 51 -1 7 2 13 8 13 5 0 8 11 6 25 -1 14 2 25
7 25 6 0 8 7 4 15 -3 8 -1 15 4 15 5 0 9 8 8 18 0 9 5 40 12 67 6 28 11 66 12
85 0 19 3 40 7 45 8 11 6 252 -3 330 -9 76 -34 204 -43 218 -4 6 -8 19 -8 27
0 15 -16 59 -55 155 -6 17 -11 31 -11 33 1 1 -5 10 -14 18 -8 9 -13 20 -10 25
4 5 3 9 -2 9 -10 0 -33 48 -33 69 0 8 -3 11 -6 8 -4 -4 -16 10 -27 31 -11 20
-25 40 -31 44 -6 4 -11 11 -11 16 0 5 -7 16 -15 25 -8 9 -26 31 -40 49 -28 37
-149 160 -195 198 -63 52 -188 130 -272 170 -48 23 -96 46 -105 51 -10 5 -22
9 -27 9 -5 0 -22 5 -38 12 -43 17 -42 17 -128 34 -44 9 -87 19 -95 22 -8 2
-32 4 -52 4 -21 0 -38 3 -38 7 0 9 -291 8 -296 -1z"/>
</g>
</svg>
